# xmcd
#
# Track frame offsets: 
#        150
#        10846
#        22813
#        37111
#        56743
#        74100
#        92882
#        107385
#        118584
#        133820
#        145845
#        162284
#
# Disc length: 2343 seconds
#
# Revision: 0
# Processed by: cddbd v1.5.2PL0 Copyright (c) Steve Scherf et al.
# Submitted via: ExactAudioCopy v1.0b3
#
DISCID=a609250c
DTITLE=Björn Rosenström and Det Jävla Bandet - Tuff Pipa
DYEAR=2015
DGENRE=Pop
TTITLE0=Tuff pipa
TTITLE1=Min bäste vän
TTITLE2=Ralf
TTITLE3=Känner ingenting
TTITLE4=Lågpresterande Eurodisco lover
TTITLE5=Schas Gunnar!
TTITLE6=Rakad och farlig
TTITLE7=After Work
TTITLE8=Chilinötter och braj
TTITLE9=Toyboy
TTITLE10=Inte lägga av
TTITLE11=Dirty Björn
EXTD=
EXTT0=
EXTT1=
EXTT2=
EXTT3=
EXTT4=
EXTT5=
EXTT6=
EXTT7=
EXTT8=
EXTT9=
EXTT10=
EXTT11=
PLAYORDER=
